# xmcd
#
# Track frame offsets: 
#        150
#        14612
#        27972
#        41902
#        55277
#        68697
#        82372
#        95019
#        114274
#        129891
#        144046
#        154226
#        169708
#        185558
#        199428
#        218750
#        230122
#
# Disc length: 3222 seconds
#
# Revision: 0
# Processed by: cddbd v1.5.2PL0 Copyright (c) Steve Scherf et al.
# Submitted via: ExactAudioCopy v1.0b1
#
DISCID=f50c9411
DTITLE=B.B. and The Blues Shacks - Unique Taste
DYEAR=2008
DGENRE=Modern Electric Blues, Contemporary Blues
TTITLE0=Keep My Promises
TTITLE1=Fool I Am
TTITLE2=Unique Taste
TTITLE3=I Understand
TTITLE4=Three Handed Woman
TTITLE5=Fool When You're Cool
TTITLE6=Not The One For Me
TTITLE7=Little Pins
TTITLE8=Anything But You
TTITLE9=Like A Woman That Just Bought Shoes
TTITLE10=Cut It!
TTITLE11=Step Back A Little
TTITLE12=Tears About To Fall
TTITLE13=So Glad I'm On Your Mind
TTITLE14=Too Fast Living
TTITLE15=Do My Will
TTITLE16=When The Night Comes Down
EXTD=
EXTT0=
EXTT1=
EXTT2=
EXTT3=
EXTT4=
EXTT5=
EXTT6=
EXTT7=
EXTT8=
EXTT9=
EXTT10=
EXTT11=
EXTT12=
EXTT13=
EXTT14=
EXTT15=
EXTT16=
PLAYORDER=
